<?xml version="1.0" standalone="no"?>
<!DOCTYPE svg PUBLIC "-//W3C//DTD SVG 20010904//EN"
 "http://www.w3.org/TR/2001/REC-SVG-20010904/DTD/svg10.dtd">
<svg version="1.0" xmlns="http://www.w3.org/2000/svg"
 width="440.000000pt" height="440.000000pt" viewBox="0 0 440.000000 440.000000"
 preserveAspectRatio="xMidYMid meet">
<metadata>
Created by potrace 1.11, written by Peter Selinger 2001-2013
</metadata>
<g transform="translate(0.000000,440.000000) scale(0.100000,-0.100000)"
fill="#000000" stroke="none">
<path d="M2248 4342 c-26 -5 -22 -34 11 -100 32 -64 58 -136 66 -184 3 -18 8
-40 10 -48 6 -22 13 -84 20 -166 l6 -71 -48 -16 c-26 -8 -115 -32 -198 -51
-82 -20 -163 -40 -180 -44 -47 -12 -44 -39 8 -61 75 -32 146 -42 294 -38 l141
4 1 -193 c1 -176 0 -193 -16 -197 -32 -9 -247 -59 -273 -63 -14 -3 -52 -11
-85 -19 -211 -49 -279 -56 -485 -45 -87 4 -97 2 -104 -15 -7 -18 9 -54 55
-125 59 -93 94 -176 169 -405 161 -494 169 -515 211 -515 16 0 49 39 61 72 3
6 16 10 86 23 15 3 60 13 100 21 40 9 75 14 77 12 5 -5 -122 -196 -146 -221
-8 -8 -30 -34 -49 -58 -205 -255 -469 -501 -815 -762 -182 -137 -223 -177
-182 -177 41 0 301 115 420 186 69 41 241 162 272 191 11 10 36 31 55 47 94
76 234 211 380 365 39 41 130 148 203 239 l67 84 -5 -214 c-6 -285 -20 -550
-36 -718 -11 -118 -13 -133 -36 -244 -19 -99 -13 -215 17 -306 42 -128 126
-270 159 -270 38 0 74 104 87 250 4 41 8 390 9 775 2 385 3 702 4 704 1 2 29
-33 64 -79 134 -177 446 -570 477 -600 3 -3 25 -30 50 -60 110 -135 113 -137
178 -166 89 -41 211 -54 442 -48 113 2 219 6 235 8 17 2 62 7 100 11 86 7 135
22 135 40 0 23 -59 51 -230 110 -256 87 -420 159 -578 252 -70 41 -230 149
-242 163 -3 3 -34 29 -70 59 -108 88 -225 197 -408 375 -127 125 -169 172
-159 178 15 8 114 35 157 43 151 27 264 43 271 39 5 -3 9 -13 9 -23 0 -10 6
-24 14 -30 41 -34 84 29 323 467 98 181 121 216 202 305 59 65 66 79 61 122
-7 67 -176 187 -325 230 -99 29 -155 24 -280 -27 -117 -48 -371 -127 -419
-131 l-29 -2 3 85 c1 47 4 108 5 135 2 28 5 74 6 103 1 29 6 55 10 57 3 3 131
36 283 74 294 75 396 109 435 147 21 20 23 26 13 48 -19 42 -86 79 -152 84
-47 3 -94 -5 -252 -48 -106 -28 -224 -60 -262 -70 l-68 -18 5 72 c7 82 20 146
40 196 18 43 12 88 -15 117 -49 53 -303 148 -360 135z m889 -1158 c23 -31 10
-181 -33 -384 -9 -41 -18 -86 -20 -100 -10 -54 -38 -147 -55 -180 -24 -49 -52
-71 -96 -77 -73 -8 -218 -35 -295 -52 -64 -15 -78 -16 -79 -5 0 8 -1 52 -1 99
0 47 1 93 1 103 1 13 25 26 94 51 102 37 201 82 232 106 25 19 13 40 -35 67
-48 25 -136 23 -275 -7 -19 -4 -20 1 -18 133 1 75 2 145 2 154 1 12 17 20 59
29 31 7 62 14 67 15 6 2 42 11 80 19 39 9 79 19 90 21 175 42 255 44 282 8z
m-759 -276 l-3 -141 -184 -68 c-101 -37 -190 -74 -198 -82 -14 -14 -12 -17 18
-33 29 -15 60 -18 200 -18 l167 0 1 -123 1 -122 -88 -26 c-48 -14 -112 -33
-142 -41 -30 -9 -66 -20 -80 -24 -80 -27 -171 -52 -173 -49 -2 2 -14 72 -27
154 -13 83 -25 155 -26 160 -1 6 -5 30 -8 55 -4 25 -18 104 -31 175 -14 72
-27 142 -29 157 -5 32 -31 23 269 94 110 26 223 52 250 59 93 23 86 34 83
-127z"/>
<path d="M1113 3851 c-27 -9 -68 -30 -93 -47 -64 -43 -162 -88 -261 -118 -157
-47 -238 -50 -388 -12 -57 15 -110 25 -117 22 -16 -6 -10 -46 15 -95 40 -78
80 -261 96 -446 4 -38 8 -81 10 -95 5 -34 15 -158 21 -255 6 -112 5 -736 -1
-935 -5 -162 -9 -247 -20 -385 -6 -70 -7 -82 -25 -185 -20 -118 -25 -169 -24
-280 1 -101 5 -126 32 -210 34 -103 88 -207 115 -224 48 -30 87 60 103 234 3
36 7 76 10 90 8 47 18 584 18 970 0 338 -7 649 -19 860 -5 79 -13 274 -20 470
-3 80 -8 182 -9 227 l-4 82 42 7 c22 3 52 8 66 11 14 2 32 6 40 8 8 2 30 7 49
10 18 3 82 19 142 35 159 43 193 39 191 -22 -1 -18 -8 -53 -17 -78 -14 -39
-25 -82 -41 -155 -41 -189 -31 -360 28 -520 17 -44 36 -101 43 -128 7 -26 14
-48 16 -50 1 -1 -3 -12 -10 -24 -14 -26 -55 -30 -156 -13 -33 6 -89 13 -123
16 -59 6 -64 5 -60 -12 2 -11 32 -38 68 -60 172 -110 234 -163 393 -331 86
-92 114 -93 137 -5 43 172 28 281 -71 490 -90 190 -139 325 -139 383 0 57 21
129 66 222 38 79 41 85 100 172 57 86 81 111 152 161 45 33 62 51 62 68 0 29
-11 38 -96 80 -146 70 -248 92 -321 67z"/>
</g>
</svg>
